<svg width="33" height="55" viewBox="0 0 33 55" fill="none" xmlns="http://www.w3.org/2000/svg">
<path fill-rule="evenodd" clip-rule="evenodd" d="M27.6796 0.171875H5.92963C3.09863 0.171875 0.804626 2.46588 0.804626 5.29588V49.0469C0.804626 51.8769 3.09863 54.1719 5.92963 54.1719H27.6796C30.5096 54.1719 32.8046 51.8769 32.8046 49.0469V5.29588C32.8046 2.46588 30.5096 0.171875 27.6796 0.171875ZM30.8046 49.0469C30.8046 50.7699 29.4026 52.1719 27.6796 52.1719H5.92963C4.20663 52.1719 2.80463 50.7699 2.80463 49.0469V41.1699H30.8046V49.0469ZM30.8046 39.1699H2.80463V11.1719H30.8046V39.1699ZM30.8046 9.17188H2.80463V5.29588C2.80463 3.57288 4.20663 2.17188 5.92963 2.17188H27.6796C29.4026 2.17188 30.8046 3.57288 30.8046 5.29588V9.17188ZM16.8046 48.1719C17.9086 48.1719 18.8046 47.2759 18.8046 46.1719C18.8046 45.0669 17.9086 44.1719 16.8046 44.1719C15.6996 44.1719 14.8046 45.0669 14.8046 46.1719C14.8046 47.2759 15.6996 48.1719 16.8046 48.1719Z" fill="#EB1B21"/>
</svg>
