<svg width="37" height="51" viewBox="0 0 37 51" fill="none" xmlns="http://www.w3.org/2000/svg">
<path fill-rule="evenodd" clip-rule="evenodd" d="M18.1956 10.6719C13.7246 10.6719 10.1956 14.2039 10.1956 18.6719C10.1956 23.1389 13.7246 26.6719 18.1956 26.6719C22.6666 26.6719 26.1956 23.1389 26.1956 18.6719C26.1956 14.2039 22.6666 10.6719 18.1956 10.6719ZM18.1956 24.6709C14.8246 24.6709 12.1956 22.0389 12.1956 18.6719C12.1956 15.3039 14.8246 12.6709 18.1956 12.6709C21.5656 12.6709 24.1956 15.3039 24.1956 18.6719C24.1956 22.0389 21.5656 24.6709 18.1956 24.6709ZM18.1956 0.671875C8.24956 0.671875 0.195557 8.99288 0.195557 18.6719C0.195557 33.4299 18.1956 50.6719 18.1956 50.6719C18.1956 50.6719 36.1956 33.4299 36.1956 18.6719C36.1956 8.99288 28.1416 0.671875 18.1956 0.671875ZM18.1956 47.6709C14.0846 43.3649 2.19556 30.0949 2.19556 18.6719C2.19556 9.99088 9.50856 2.67188 18.1956 2.67188C26.8826 2.67188 34.1956 9.99088 34.1956 18.6719C34.1956 30.0949 22.3056 43.3649 18.1956 47.6709Z" fill="#EB1B21"/>
</svg>
