<svg xmlns="http://www.w3.org/2000/svg" viewBox="0 0 30.03 21.03"><defs><style>.cls-1{fill:#fff;}</style></defs><title>youtube</title><g id="Layer_2" data-name="Layer 2"><g id="Layer_1-2" data-name="Layer 1"><path class="cls-1" d="M29.41,3.29A3.75,3.75,0,0,0,26.76.64C24.41,0,15,0,15,0S5.62,0,3.27.62A3.8,3.8,0,0,0,.62,3.29,39.52,39.52,0,0,0,0,10.51a39.49,39.49,0,0,0,.62,7.23,3.74,3.74,0,0,0,2.65,2.64C5.64,21,15,21,15,21s9.39,0,11.74-.62a3.75,3.75,0,0,0,2.65-2.65A39.52,39.52,0,0,0,30,10.54,38,38,0,0,0,29.41,3.29ZM12,15V6l7.82,4.5Z"/></g></g></svg>