<svg xmlns="http://www.w3.org/2000/svg" viewBox="0 0 50 19.92"><defs><style>.cls-1{fill:#fff;}</style></defs><title>zalo</title><g id="Layer_2" data-name="Layer 2"><g id="Layer_1-2" data-name="Layer 1"><path class="cls-1" d="M5.59,15.64c2.48,0,4.81,0,7.13,0,1.3,0,2,.56,2.13,1.59a1.84,1.84,0,0,1-2,2.19c-2.66,0-5.3,0-8,0-.77,0-1.52,0-2.3,0A2.41,2.41,0,0,1,.22,18.19a2.44,2.44,0,0,1,.49-2.68c2.53-3.22,5.07-6.46,7.62-9.68l.45-.57c-.17-.28-.4-.15-.6-.17H2.84A6.06,6.06,0,0,1,1.63,5a1.73,1.73,0,0,1,0-3.36,5.41,5.41,0,0,1,1.21-.14c2.93,0,5.87,0,8.79,0a5.39,5.39,0,0,1,1.55.18A1.79,1.79,0,0,1,14.3,4.12a11.48,11.48,0,0,1-1.65,2.55Q9.43,10.78,6.2,14.85c-.19.22-.35.43-.61.79Z"/><path class="cls-1" d="M24.65,7a2.5,2.5,0,0,1,1.47-1.12,2,2,0,0,1,2.53,1.89c.05,3.29,0,6.57,0,9.86a1.92,1.92,0,0,1-1.36,1.85,2,2,0,0,1-2.3-.64c-.28-.34-.39-.41-.79-.09a5,5,0,0,1-5,.83c-2.92-.95-4.12-3.23-4.45-6a6.82,6.82,0,0,1,3.35-7.15A5.21,5.21,0,0,1,24.65,7Zm-5.82,6a3.51,3.51,0,0,0,.69,2,2.72,2.72,0,0,0,3.78.55,2.57,2.57,0,0,0,.54-.55,4.1,4.1,0,0,0,0-4.55,2.44,2.44,0,0,0-1.95-1C20.08,9.28,18.81,10.68,18.83,13Zm17.2.09c-.13-4.22,2.65-7.37,6.59-7.49A6.82,6.82,0,0,1,50,12.39c.13,4.15-2.42,7.09-6.35,7.49A6.7,6.7,0,0,1,36,13.09Zm4.12-.39a3.67,3.67,0,0,0,.71,2.3,2.68,2.68,0,0,0,3.78.49,3,3,0,0,0,.48-.46,4.09,4.09,0,0,0,0-4.6,2.5,2.5,0,0,0-2-1C41.4,9.3,40.15,10.65,40.15,12.7ZM34.58,9.82c0,2.55,0,5.1,0,7.64a2.13,2.13,0,0,1-2.07,2.17,2.45,2.45,0,0,1-.6-.06,2.15,2.15,0,0,1-1.45-2.12V4.39c0-.78,0-1.53,0-2.3a2.06,2.06,0,1,1,4.12,0C34.6,4.68,34.58,7.26,34.58,9.82Z"/></g></g></svg>